<svg id="Layer_1" data-name="Layer 1" xmlns="http://www.w3.org/2000/svg" xmlns:xlink="http://www.w3.org/1999/xlink" viewBox="0 0 180.48 342.07"><defs><style>.cls-1{stroke:#fff;stroke-miterlimit:10;fill:url(#linear-gradient);}</style><linearGradient id="linear-gradient" x1="148.51" y1="64.29" x2="-1.49" y2="369.29" gradientUnits="userSpaceOnUse"><stop offset="0" stop-color="#d259a1"/><stop offset="0.03" stop-color="#d763a6"/><stop offset="0.11" stop-color="#e076af"/><stop offset="0.19" stop-color="#e681b4"/><stop offset="0.28" stop-color="#e885b6"/><stop offset="0.54" stop-color="#69a4d9"/><stop offset="0.89" stop-color="#436bb4"/><stop offset="1" stop-color="#3b6ab3"/></linearGradient></defs><path class="cls-1" d="M103.42,3.08C77.09,48.37,15.09,151.93,1.24,175A5.14,5.14,0,0,0,3,182l.21.12,59.52,32.47a5.15,5.15,0,0,1,2.6,5.49l-22,115.39a5.16,5.16,0,0,0,9,4.31L178.77,191.21a5.15,5.15,0,0,0-.59-7.27,5,5,0,0,0-.66-.48l-74.08-45.13a5.15,5.15,0,0,1-2.45-4.9L113,6.17a5.16,5.16,0,0,0-9.57-3.09Z" transform="translate(-0.01 -0.07)"/></svg>